<svg width="128" height="72" viewBox="0 0 1280 716" version="1.0" xmlns="http://www.w3.org/2000/svg" preserveAspectRatio="xMidYMid meet">
    <g transform="translate(0.000000,716.000000) scale(0.100000,-0.100000)" fill="#000000" stroke="none">
        <path d="M3170 7149 c-50 -20 -100 -84 -100 -129 l0 -20 -1134 0 -1133 0 -34
        -23 c-48 -32 -79 -83 -79 -129 0 -52 32 -111 73 -137 l34 -21 1980 0 1980 0
        34 23 c20 13 44 43 59 74 l25 53 1105 0 c617 0 1122 4 1144 9 138 33 161 227
        35 292 -37 19 -77 19 -2001 18 -1279 0 -1972 -4 -1988 -10z"/>
        <path d="M3361 6144 c-178 -25 -235 -40 -225 -56 5 -8 51 -9 146 -4 178 8 185
        5 213 -91 12 -40 23 -56 45 -68 17 -9 30 -20 30 -25 0 -16 -30 -11 -57 9 -22
        18 -53 19 -53 2 0 -12 42 -46 83 -66 35 -18 49 -47 28 -59 -4 -3 -11 -20 -15
        -37 -3 -17 -15 -44 -27 -61 -16 -21 -18 -33 -11 -40 8 -8 13 -6 18 8 3 10 12
        35 19 54 8 19 17 45 20 58 5 16 14 22 34 22 l28 0 -11 -43 c-6 -24 -19 -51
        -28 -61 -10 -9 -14 -24 -11 -33 5 -12 11 -7 24 23 9 21 21 52 25 68 8 26 16
        31 74 46 83 20 87 23 101 71 9 27 17 38 27 34 7 -3 24 -5 38 -5 20 0 25 -6 30
        -41 8 -47 23 -56 65 -39 53 22 97 98 77 134 -12 21 -87 22 -154 1 -63 -19 -61
        -20 -56 14 3 20 -2 35 -17 50 -35 35 -84 24 -109 -24 -9 -18 -12 -17 -27 17
        -17 33 -17 39 -1 84 19 56 14 63 -46 75 -61 12 -92 10 -277 -17z"/>
        <path d="M7892 4173 c-4 -1 -19 -4 -34 -7 -32 -7 -48 -48 -36 -93 7 -29 13
        -32 61 -40 l52 -8 0 -850 0 -850 -155 3 c-1846 35 -4040 393 -6120 999 -225
        65 -391 116 -598 184 -101 34 -185 59 -187 57 -13 -15 -57 -115 -70 -163 -15
        -50 -17 -86 -12 -220 8 -225 75 -657 128 -824 48 -150 151 -341 245 -458 19
        -23 34 -44 34 -47 0 -3 -247 -7 -549 -8 -537 -3 -550 -3 -577 -24 -52 -38 -69
        -71 -69 -132 0 -70 28 -115 89 -143 38 -17 74 -19 485 -19 l443 0 -60 -41
        c-72 -47 -125 -116 -154 -196 -29 -83 -23 -206 14 -285 37 -80 107 -151 187
        -191 l65 -32 269 -3 269 -3 -42 -37 c-68 -62 -62 -153 13 -201 l32 -21 -500 0
        -500 0 -51 -24 c-98 -45 -164 -162 -150 -264 13 -99 84 -186 175 -217 42 -13
        609 -15 5436 -13 l5390 3 40 22 c47 25 96 74 121 123 28 52 26 172 -3 226 -27
        51 -100 117 -145 131 -24 8 132 11 570 12 664 1 653 0 692 63 25 42 26 92 0
        133 -37 59 -43 60 -507 60 -233 0 -423 3 -423 6 0 4 15 10 34 13 47 9 146 75
        183 122 163 207 101 485 -135 601 l-76 38 -178 4 c-98 2 -178 5 -178 8 0 2 15
        31 33 63 l32 59 611 3 611 3 37 29 c97 74 82 217 -28 267 -38 17 -77 19 -602
        19 l-561 0 9 61 c15 112 37 421 44 614 6 184 6 191 -14 209 -26 23 -57 18
        -166 -27 l-78 -32 -39 -102 c-21 -57 -46 -130 -55 -164 -9 -33 -22 -63 -28
        -65 -9 -3 -486 -64 -501 -64 -3 0 -5 331 -5 735 l0 735 68 0 69 0 16 67 c10
        43 13 71 7 78 -29 35 -326 65 -845 85 -364 14 -2097 41 -2133 33z m1458 -668
        l0 -335 -197 2 -198 3 -3 333 -2 332 200 0 200 0 0 -335z m560 0 l0 -335 -200
        0 -200 0 0 335 0 335 200 0 200 0 0 -335z m600 0 l0 -335 -195 0 -195 0 0 335
        0 335 195 0 195 0 0 -335z m-2240 285 c79 -11 147 -20 152 -20 4 0 8 -135 8
        -301 l0 -301 -23 6 c-27 6 -326 66 -333 66 -2 0 -4 128 -4 285 l0 285 28 0
        c16 0 93 -9 172 -20z"/>
    </g>
</svg>
